<svg xmlns="http://www.w3.org/2000/svg" width="800.249" height="643.989" viewBox="0 0 800.249 643.989">
  <g transform="translate(-543.986 -268)">
    <path d="m1150.54 613.855 16.027-2.907 4.004 12.325-16.116 5.237Z" fill="#ed9da0"/>
    <path d="M1039.536 910.351s-12.713-31.293 25.426-54.763Z" fill="#e6e6e6"/>
    <path d="M1053.09 909.782s-3.878-22.3-33.894-22.113Zm257.554.569s-16.8-41.343 33.591-72.349Zm-20.656-.752s-5.123-29.467-44.779-29.214" fill="#e6e6e6"/>
    <g transform="translate(543.986 268)">
      <g fill="#0061a4">
        <path d="m489.189 183.517-26.31-13.975 1.969-1.047 26.31 13.977Z"/>
        <path d="m466.238 183.517-1.967-1.045 26.309-13.977 1.969 1.047Z"/>
      </g>
      <path fill="#cbcbcb" d="m342.99 112.277.8-1.561 4.685 2.4-.8 1.563zm97.947 50.194-9.326-4.779.8-1.562 9.326 4.779Zm-18.653-9.558-9.327-4.78.8-1.562 9.327 4.78Zm-18.653-9.559-9.326-4.779.8-1.562 9.326 4.779Zm-18.653-9.558-9.327-4.779.8-1.562 9.327 4.779Zm-18.653-9.558-9.326-4.779.8-1.562 9.326 4.779Zm83.942 43.011.8-1.562 4.686 2.401-.8 1.562z"/>
      <path d="M97.266 228.208q0 .822-.053 1.631a24.7 24.7 0 0 1-2.315 8.969l-.033.069a18 18 0 0 1-.191.39 24 24 0 0 1-1.315 2.32 24.83 24.83 0 0 1-20.375 11.466l.246 14.133 3.2-1.688.572 1.088-3.753 1.976.459 26.248.005.351-2.478.552.005-.352.78-42.306a24.78 24.78 0 0 1-17.529-7.627 24 24 0 0 1-.462-.493l-.017-.019a24.9 24.9 0 0 1-4.527-7l.074.081a24.857 24.857 0 0 1 11.785-32.03l.26-.127a24.876 24.876 0 0 1 32.227 9.783c.151.254.3.514.438.775a24.7 24.7 0 0 1 2.99 11.815Z" fill="#e5e5e5"/>
      <circle cx="32.572" cy="32.572" r="32.572" transform="translate(61.35 173.745)" fill="#0061a4"/>
      <path d="M254.05 312.138a32.575 32.575 0 0 0 54.275 34.474 32.575 32.575 0 1 1-54.275-34.474" transform="translate(-184.178 -127.576)" opacity=".2" style="isolation:isolate"/>
      <path d="m95.685 297.056-3.327-.933.007-.358 1-54.181.05-2.7v-.079l.174-9.466.252-13.72.171-9.3h.092l.175 10.076.228 13.114.163 9.3v.069l.007.384.316 18.138.033 1.8.653 37.49Z" fill="#3f3d56"/>
      <path fill="#3f3d56" d="m93.808 258.03 5.384-2.836.75 1.426-5.384 2.835z"/>
      <path d="M516.157 100.901a830 830 0 0 0-123.366 1.9c-19.77 1.787-39.854 3.717-59.259 8.03-15.63 3.474-33.77 9.344-43.508 23.018a22.22 22.22 0 0 0-3.469 19.453c2.322 7.8 8.1 14.284 14.25 19.366 14.158 11.7 31.725 18.5 47.417 27.8 28.651 16.967 54.872 39.835 71.7 68.886 7.406 12.783 14.451 29.781 6.2 43.867-8.079 13.8-26.114 18.554-40.822 20.8-18.435 2.81-37.424 2.048-55.936.474a583 583 0 0 1-60.462-8.856c-39.153-7.518-77.949-17.081-117.645-21.43a340.7 340.7 0 0 0-59.982-1.735c-18.068 1.219-36.291 4.077-53.264 10.592-13.08 5.02-27.022 12.616-34.087 25.283-6.81 12.211-4.154 26.292 3.262 37.558 8.923 13.555 22.836 22.844 37.3 29.633 16.47 7.73 34.087 12.741 51.725 17 8.946 2.161 17.94 4.115 26.935 6.059 1.876.405 2.678-2.477.8-2.884-18.14-3.92-36.332-7.852-54.021-13.526-16.369-5.251-33.121-11.977-46.526-23-10.845-8.92-21.156-21.948-20.516-36.761.645-14.933 13.174-25.359 25.454-31.777 15.347-8.02 32.783-11.927 49.868-13.969a303 303 0 0 1 58.907-.8c39.6 3.013 78.321 12.035 117.151 19.9 37.722 7.644 76.621 14.723 115.279 12.762 15.322-.777 31.74-2.973 45.269-10.707 6.194-3.541 11.78-8.535 14.928-15.034a33.67 33.67 0 0 0 2.573-19.783c-2.194-14.724-10.939-28.377-19.665-40.1a193.8 193.8 0 0 0-33.033-34.236 260.6 260.6 0 0 0-43.713-28.476c-8.213-4.324-16.542-8.482-24.368-13.49-7.5-4.8-14.907-10.58-19.489-18.375-3.964-6.742-4.691-14.437-.562-21.275 4.176-6.916 11.37-11.74 18.464-15.265 17.093-8.493 36.965-10.766 55.665-13.1a823 823 0 0 1 121.072-6.037q14.748.347 29.477 1.221c1.923.113 1.916-2.878 0-2.991Z"/>
      <path d="m490.077 5.036 6.21-4.967c-4.824-.532-6.807 2.1-7.618 4.181-3.769-1.565-7.872.486-7.872.486l12.425 4.511a9.4 9.4 0 0 0-3.145-4.211m-30.138 15.725 6.21-4.967c-4.824-.532-6.807 2.1-7.618 4.181-3.769-1.565-7.872.486-7.872.486l12.425 4.511a9.4 9.4 0 0 0-3.145-4.211m30.138 24.896 6.21-4.967c-4.824-.532-6.807 2.1-7.618 4.181-3.769-1.565-7.872.486-7.872.486l12.426 4.516a9.4 9.4 0 0 0-3.145-4.211Z" fill="#3f3d56"/>
      <g transform="translate(363.521 15.2)">
        <circle cx="18.71" cy="18.71" r="18.71" transform="translate(14.748 .395)" fill="#ff6583"/>
        <path d="M92.129 76.76H.343A2 2 0 0 1 0 76.733L43.412 1.544a3.039 3.039 0 0 1 5.291 0L77.836 52l1.4 2.414Z" fill="#0061a4"/>
        <path d="M143.232 76.761H63.846l15.383-22.345 1.107-1.61 20.045-29.123a4.056 4.056 0 0 1 6.025-.36 4 4 0 0 1 .289.36Z" fill="#0061a4"/>
      </g>
      <path d="M375.801 264.409c8.7 4.348 14 10.091 14 16.391 0 13.57-24.555 24.57-54.844 24.57-13.169 0-25.25-2.081-34.7-5.547 10.042 5.019 24.618 8.179 40.847 8.179 30.289 0 54.844-11 54.844-24.57-.008-7.67-7.857-14.517-20.147-19.023" fill="#f1f1f1"/>
      <path d="M395.153 273.73c9.817 4.907 15.794 11.387 15.794 18.495 0 15.312-27.707 27.724-61.885 27.724-14.86 0-28.492-2.348-39.16-6.259 11.331 5.663 27.778 9.229 46.091 9.229 34.178 0 61.885-12.413 61.885-27.724-.001-8.65-8.857-16.381-22.725-21.465" fill="#f1f1f1"/>
      <path d="M368.395 268.514c6.129 3.064 9.861 7.11 9.861 11.548 0 9.56-17.3 17.31-38.639 17.31a72.6 72.6 0 0 1-24.45-3.908c7.074 3.536 17.344 5.762 28.778 5.762 21.339 0 38.639-7.75 38.639-17.31 0-5.403-5.53-10.227-14.189-13.402" fill="#f1f1f1"/>
      <path d="M282.274 266.76s1.347 19.687 39.957 19.687 50.137-19.687 50.137-19.687Zm54.802-51.655a27.1 27.1 0 0 0-19.523-5.34 27.2 27.2 0 0 1-3.293 53.462 27.2 27.2 0 0 0 22.816-48.122" fill="#3f3d56"/>
      <path fill="#3f3d56" d="M321.791 206.212h2.632v62.662h-2.632z"/>
      <path d="m497.43 159.654-.014-.024-.036-1.531 8.247-11.974-8.237 10.828-.029.324-.282-12.239 7.123-12.414-7.143 10.264.075-25.356v-.084.083l-.473 19.984-6.492-8.117 6.471 9.839-.142 10.947-5.974-10.684 5.952 12.294-.079 6.087-.218 16.865-.016 1.26q.825.006 1.634-.027l-.374-16.2Zm-39.487 5.263-.014-.024-.036-1.531 8.247-11.974-8.233 10.829-.03.324-.282-12.239 7.123-12.414-7.143 10.264.074-25.356v-.079.083l-.473 19.984-6.492-8.117 6.471 9.839-.142 10.947-5.974-10.684 5.952 12.294-.079 6.087-.218 16.865-.016 1.26q.825.006 1.634-.027l-.374-16.2Zm19.303-16.67-.014-.024-.036-1.531 8.247-11.974-8.237 10.828-.03.324-.282-12.239 7.123-12.414-7.143 10.264.075-25.356v-.084.083l-.473 19.984-6.492-8.117 6.471 9.839-.142 10.947-5.974-10.684 5.952 12.294-.079 6.087-.218 16.865-.016 1.26q.825.006 1.634-.027l-.374-16.2Z" fill="#cbcbcb"/>
      <circle cx="10.53" cy="10.53" r="10.53" transform="translate(140.588 418.567)" fill="#0061a4"/>
    </g>
    <path d="m1227.969 891.47-9.749 3.622-18.61-35.878 14.389-5.344Z" fill="#ed9da0"/>
    <path d="m1233.966 899.998-31.434 11.678-.148-.4a13.053 13.053 0 0 1 7.688-16.781l19.2-7.133Z" fill="#2f2e41"/>
    <path d="M1132.032 901.595h-10.4l-4.948-40.113h15.349Z" fill="#ed9da0"/>
    <path d="M1133.836 911.676h-33.533v-.424a13.05 13.05 0 0 1 13.051-13.052h20.482Zm45.813-288.282-3.4-6.783-28.841 14.421.848 5.938-5.514 7.21s-9.331 5.09-7.634 22.055l1.7 16.117 2.121 20.783-14.845 51.32-7.635 67.856-5.514 54.714 26.721-1.272 24.6-89.069 43.262 95.855 29.688-7.628-40.717-95.01-5.09-39.869s3.393-21.207-12.724-35.627l2.545-7.634v-9.408l8.483-44.882Z" fill="#2f2e41"/>
    <path opacity=".2" d="m1161.775 786.551 18.661-66.164.96.27-18.662 66.165z"/>
    <path fill="#3f3d56" d="M1137.23 703.132h41.565v4.241h-41.565z"/>
    <ellipse cx="1.697" cy="4.241" rx="1.697" ry="4.241" transform="translate(1135.535 701.436)" fill="#3f3d56"/>
    <circle cx="22.611" cy="22.611" r="22.611" transform="rotate(-28.663 1704.772 -1910.481)" fill="#ed9da0"/>
    <circle cx="20.003" cy="20.003" r="20.003" transform="translate(1170.573 544.505)" fill="#2f2e41"/>
    <path d="M1215.96 562.366a20 20 0 1 1-39.021 8.2 20 20 0 0 0 39.021-8.2" fill="#2f2e41"/>
    <path d="M1136.935 586.306a23.65 23.65 0 1 0 14.113-19.04c-3.95-3.186-8.848-2.2-12.83 1.164-4.5 3.8-5.839 6.413-9.331 12.665 3.434.482 4.614 4.729 8.048 5.211" fill="#2f2e41"/>
    <path d="M1220.048 654.301c-.253 6.7-.755 19.891-.755 20.564 0 .709-10 21.413-14.319 30.324-.307.628-.583 1.2-.827 1.7a4.02 4.02 0 0 1-3.692 2.268l-18.878-.339a4.024 4.024 0 0 1-3.951-3.917l-2.106-83.055a2.053 2.053 0 0 1 2.051-2.106h24.346a5.47 5.47 0 0 1 4.925 3.091l11.685 24.174a15.45 15.45 0 0 1 1.523 7.3Z" fill="#0061a4"/>
    <path d="M1177.297 699.204a54 54 0 0 1-12.9-10.9 59.82 59.82 0 0 1-14.909-34.78c-.96-11.038 1.23-19.243 6.51-24.386 6.711-6.539 15.845-5.589 16.231-5.545l.409.046 6.192 5.236-1.751 2.07-5.537-4.685c-1.695-.085-8.615-.1-13.669 4.841-4.653 4.551-6.563 12.016-5.679 22.189a57.13 57.13 0 0 0 14.164 33.133 52.5 52.5 0 0 0 12.252 10.408Z" fill="#0061a4"/>
    <path fill="#3f3d56" d="m1179.957 674.599 32.988-6.772.181.886-32.987 6.771zm114.751 3.194.903-.04 2.346 52.478-.903.04z"/>
    <path d="M1220.05 654.305c-.253 6.7-.755 19.891-.755 20.564 0 .709-10 21.413-14.319 30.324l8.052-46.753a10.3 10.3 0 0 1 6.692-7.948 15.2 15.2 0 0 1 .33 3.813" fill="#3f3d56"/>
    <path d="M1170.578 752.287a7.954 7.954 0 0 0-2.587-11.919l1.636-18.1-10.759-3.678-1.952 25.6a8 8 0 0 0 13.661 8.1Z" fill="#ed9da0"/>
    <path d="m1171.984 734.77-19.064-.691.806-91.935a12.41 12.41 0 0 1 8.407-11.812 11.28 11.28 0 0 1 7.09-.006 12.41 12.41 0 0 1 8.4 12.7Zm167.242 177.219H959.409a1 1 0 0 1 0-1.994h379.817a1 1 0 1 1 0 1.994" fill="#cbcbcb"/>
  </g>
</svg>
